<svg width="48" height="50" viewBox="0 0 48 50" fill="none" xmlns="http://www.w3.org/2000/svg">
<path fill-rule="evenodd" clip-rule="evenodd" d="M0 12.3338V13.9588L20.7208 23.7097L0 12.3338V12.3338ZM0 14.2199V15.7582L20.6047 23.9127L0 14.2199ZM0 16.0193V17.4702L20.5176 24.145L0 16.0193V16.0193ZM0 19.3567V20.6914L20.4015 24.5802L0 19.3567V19.3567ZM0 17.7023V19.0952L20.4597 24.3482L0 17.7023V17.7023ZM2.84421 0H0.31963L21.5622 22.607L2.84421 0ZM0 0V2.69894L21.3881 22.7811L0 0ZM0 2.98919V5.36878L21.214 22.9552L0 2.98919ZM0 10.3023V12.0723L20.8079 23.5065L0 10.3023ZM0 5.68813V7.80659L21.069 23.1293L0 5.68813V5.68813ZM0 8.09683V10.0121L20.9529 23.3033L0 8.09683V8.09683ZM0 33.3152V34.7666L20.5176 26.6407L0 33.3152V33.3152ZM0 30.0942V31.4293L20.4015 26.2055L0 30.0942V30.0942ZM0 31.661V33.0834L20.4597 26.4087L0 31.661V31.661ZM0 35.0278V36.5655L20.6047 26.8439L0 35.0278V35.0278ZM0 20.9237V22.2297L20.3435 24.8125L0 20.9237V20.9237ZM0 36.8269V38.4522L20.7208 27.0762L0 36.8269V36.8269ZM0 22.4617V23.7677L20.3144 25.0448L0 22.4617V22.4617ZM0 23.9997V25.2765H20.3144L0 23.9997V23.9997ZM0 27.0177V28.2948L20.3144 25.7414L0 27.0177V27.0177ZM0 25.5091V26.786L20.3144 25.5091H0ZM0 28.5271V29.8619L20.3435 25.9732L0 28.5271V28.5271ZM22.2879 0H20.924L23.6518 21.7074L22.2879 0V0ZM32.1256 0H30.6459L25.016 21.8524L32.1256 0ZM33.9253 0H32.3871L25.2477 21.9103L33.9253 0ZM30.4136 0H28.9626L24.8125 21.7945L30.4136 0V0ZM28.7303 0H27.3376L24.5802 21.7363L28.7303 0V0ZM27.0762 0H25.7123L24.3484 21.7074L27.0762 0V0ZM35.8403 0H34.1859L25.4509 21.9974L35.8403 0V0ZM47.7097 0H45.1846L26.4378 22.607L47.7097 0ZM44.8661 0H42.6024L26.2634 22.4617L44.8661 0ZM39.9905 0H38.104L25.8861 22.2006L39.9905 0V0ZM42.3121 0H40.2516L26.0605 22.3456L42.3121 0V0ZM37.8426 0H36.1014L25.6835 22.1135L37.8426 0V0ZM13.8138 0H12.1888L22.5199 21.9974L13.8138 0ZM5.39789 0H3.13445L21.7365 22.4617L5.39789 0ZM11.8985 0H10.1574L22.3167 22.1135L11.8985 0ZM9.89622 0H8.00979L22.1138 22.2006L9.89622 0V0ZM7.74866 0H5.68813L21.9106 22.3456L7.74866 0ZM15.6132 0H14.0749L22.752 21.9103L15.6132 0ZM20.6629 0H19.2696L23.4195 21.7363L20.6629 0V0ZM0 38.7133V40.4833L20.8079 27.2791L0 38.7133V38.7133ZM23.8838 0H22.5199L23.8838 21.7074V0V0ZM17.3544 0H15.8743L22.9554 21.8524L17.3544 0ZM25.48 0H24.1161V21.7074L25.48 0V0ZM19.0376 0H17.5864L23.1875 21.7945L19.0376 0ZM1.8285 49.1895H1.50915L21.3881 28.0046L0 48.0867V49.1895H4.15016L21.5622 28.1499L1.8285 49.1895V49.1895ZM0 40.7739V42.6891L20.9529 27.4535L0 40.7739V40.7739ZM48 28.2948V27.0177L27.6858 25.7414L48 28.2948ZM48 29.8619V28.5271L27.6567 25.9732L48 29.8619ZM48 26.786V25.5091H27.6858L48 26.786ZM48 25.2765V23.9997L27.6858 25.2765H48ZM48 31.4293V30.0942L27.5982 26.2055L48 31.4293ZM48 33.0546V31.661L27.5403 26.4087L48 33.0546V33.0546ZM48 38.4522V36.8269L27.2797 27.0762L48 38.4522V38.4522ZM48 40.4833V38.7133L27.1633 27.2791L48 40.4833V40.4833ZM48 36.5655V35.0278L27.3956 26.8439L48 36.5655ZM48 34.7666V33.3152L27.4823 26.6407L48 34.7666ZM48 13.9588V12.3338L27.2797 23.7097L48 13.9588V13.9588ZM48 12.0723V10.3023L27.1633 23.5065L48 12.0723V12.0723ZM48 10.0121V8.09683L27.0474 23.3033L48 10.0121V10.0121ZM48 7.80659V5.68813L26.9018 23.1293L48 7.80659V7.80659ZM48 5.36878V3.01829L26.7571 22.9552L48 5.36878V5.36878ZM48 0L26.6122 22.7811L48 2.69894V0ZM48 15.7582V14.2199L27.3956 23.9127L48 15.7582ZM48 19.0952V17.7023L27.5403 24.3482L48 19.0952ZM48 42.6891V40.7739L27.0474 27.4535L48 42.6891ZM48 20.6914V19.3567L27.5982 24.5802L48 20.6914V20.6914ZM48 17.4702V16.0193L27.4823 24.145L48 17.4702ZM48 22.2297V20.9237L27.6567 24.8125L48 22.2297V22.2297ZM48 23.7677V22.4617L27.6858 25.0448L48 23.7677ZM11.0569 49.1604L10.8828 49.1895H12.6822L22.3167 28.6718L11.0569 49.1604V49.1604ZM48 45.0978V42.9788L26.9018 27.6561L48 45.0978ZM9.0255 49.1895H10.7958L22.1138 28.556L9.0255 49.1895V49.1895ZM21.9106 28.4401L6.8491 49.1895H8.85141L8.76436 49.1604L21.9106 28.4401V28.4401ZM0 42.9788V45.0978L21.069 27.6561L0 42.9788V42.9788ZM0 45.4169V47.7677L21.214 27.8305L0 45.4169V45.4169ZM4.46923 49.1895H4.4404H6.55886L21.7365 28.2948L4.46923 49.1895V49.1895ZM46.4905 49.1895L46.1424 49.1604L26.4378 28.1499L43.8207 49.1604H43.5016L26.2634 28.2948L41.3832 49.1315L41.122 49.1604L26.0605 28.4401L39.2065 49.1315L38.9456 49.1604L25.8861 28.556L37.2042 49.1895H48V48.0867L26.6122 28.0046L46.4905 49.1895ZM48 47.7677V45.3881L26.7571 27.8305L48 47.7677ZM21.0978 49.1604H20.8658L23.4195 29.0497L19.589 49.1604L19.3278 49.1895L23.1875 28.9912L18.0219 49.1604H17.7605L22.9554 28.9333L16.3966 49.1604H16.1646L22.752 28.8753L14.7136 49.1604L14.4522 49.1895L22.5199 28.7883L12.9433 49.1604L12.7981 49.1895H22.375L23.6518 29.0785L21.0978 49.1604V49.1604ZM23.8838 29.0785L22.607 49.1604L22.5491 49.1895H23.9709L23.8838 49.1604V29.0785ZM25.6835 28.6718L35.318 49.1604H35.0569L25.4509 28.7883L33.5475 49.1604H33.2869L25.2477 28.8753L31.8354 49.1604H31.6031L25.016 28.9333L30.2101 49.1604H29.9784L24.8125 28.9912L28.6436 49.1604L28.556 49.1895H37.0592L36.9433 49.1604L25.6835 28.6718V28.6718ZM27.1053 49.1604H26.873L24.3484 29.0785L25.5965 49.1604L25.3641 49.1315L24.1161 29.0785V49.1895H28.4113L24.5802 29.0497L27.1053 49.1604V49.1604Z" fill="#DCDCDD"/>
<path fill-rule="evenodd" clip-rule="evenodd" d="M6.76209 42.6891V25.9152L6.67505 25.6829V22.6649L6.76209 22.3167V8.0968H41.2385V26.7571L41.2964 26.9309V32.3579L41.2385 32.5897V42.6891H6.76209V42.6891Z" fill="white"/>
<path fill-rule="evenodd" clip-rule="evenodd" d="M5.86235 42.2535C5.86235 41.9054 5.5721 41.6151 5.19482 41.6151C5.02595 41.6166 4.86441 41.6843 4.745 41.8037C4.62559 41.9231 4.55786 42.0847 4.5564 42.2535C4.5564 42.6308 4.84664 42.9211 5.19482 42.9211C5.57238 42.9208 5.86235 42.6305 5.86235 42.2535V42.2535Z" fill="#D5D6D7"/>
<path fill-rule="evenodd" clip-rule="evenodd" d="M5.48534 42.5726H5.36919C5.34008 42.5147 5.34008 42.4276 5.34008 42.3988C5.34008 42.3409 5.34008 42.3115 5.25303 42.3115H5.07894V42.5729H4.99162V41.9345H5.25303C5.36919 41.9345 5.45623 41.9924 5.45623 42.1088C5.45623 42.1959 5.42712 42.2247 5.39801 42.2538C5.42712 42.2829 5.45623 42.3117 5.45623 42.3702V42.4861C5.45623 42.5152 5.45623 42.5152 5.48534 42.5152V42.5726V42.5726ZM5.36919 42.1377C5.36919 42.0506 5.31097 42.0506 5.28186 42.0506H5.07866V42.2244H5.25275C5.31097 42.2244 5.36919 42.1956 5.36919 42.1377ZM5.86235 42.2535C5.86235 41.9054 5.5721 41.6151 5.19482 41.6151C5.02595 41.6166 4.86441 41.6843 4.745 41.8037C4.62559 41.9231 4.55786 42.0847 4.5564 42.2535C4.5564 42.6308 4.84664 42.9211 5.19482 42.9211C5.57238 42.9208 5.86235 42.6305 5.86235 42.2535V42.2535ZM5.7753 42.2535C5.7753 42.5729 5.51417 42.8052 5.19482 42.8052C4.87547 42.8052 4.64344 42.5729 4.64344 42.2535C4.64344 41.9633 4.87575 41.7024 5.19482 41.7024C5.51389 41.7024 5.7753 41.9633 5.7753 42.2535V42.2535Z" fill="#0077A6"/>
<path fill-rule="evenodd" clip-rule="evenodd" d="M38.3653 28.179C38.1618 28.3528 38.0459 28.643 38.0459 28.9624C38.0459 30.0945 38.9746 30.1233 39.8738 30.1233L40.0194 30.1524C40.2229 30.1524 40.3387 30.1815 40.4255 30.2395C40.5125 30.3265 40.571 30.443 40.571 30.5877C40.571 30.7035 40.5125 30.82 40.4255 30.907C40.3384 30.9941 40.1932 31.0234 39.9903 31.0234H38.1906V31.7489H39.9903C40.948 31.7489 41.4412 31.3422 41.4412 30.53C41.4412 30.1527 41.3542 29.9204 41.1798 29.7172C40.9769 29.5143 40.6578 29.4275 40.1061 29.4275L39.5836 29.3984C39.4098 29.3984 39.2939 29.3984 39.2063 29.3399C39.0325 29.282 38.9161 29.1661 38.9161 28.9917C38.9161 28.8179 38.9746 28.7015 39.1195 28.6145C39.236 28.5565 39.3518 28.5274 39.5257 28.5274H41.2383V27.8311H39.3807C38.9457 27.8305 38.5976 27.9466 38.3653 28.179V28.179Z" fill="white"/>
<path fill-rule="evenodd" clip-rule="evenodd" d="M41.5282 30.5294C41.5282 31.4002 40.9771 31.8063 39.9905 31.8063H38.1041V30.9355H39.9905C40.1643 30.9355 40.2808 30.9064 40.3678 30.8485C40.4257 30.7906 40.4837 30.703 40.4837 30.5871C40.4837 30.4421 40.4257 30.3548 40.3678 30.2968C40.3099 30.2389 40.1934 30.2098 40.0196 30.2098C39.1198 30.1807 37.9882 30.2389 37.9882 28.9618C37.9882 28.3819 38.3364 27.7432 39.3812 27.7432H41.3256V28.6133H39.5259C39.3521 28.6133 39.2362 28.6133 39.1486 28.6713C39.0327 28.7586 39.0036 28.8456 39.0036 28.9906C39.0036 29.1362 39.0907 29.2229 39.2066 29.2809C39.323 29.31 39.4389 29.31 39.5838 29.3388H40.1064C40.658 29.3388 41.0062 29.4552 41.2385 29.6581C41.4123 29.8619 41.5282 30.1233 41.5282 30.5294V30.5294ZM37.4366 29.6587C37.2042 29.4558 36.8561 29.3394 36.305 29.3394H35.7824C35.6374 29.3102 35.521 29.3102 35.4051 29.2814C35.2893 29.2235 35.2017 29.1364 35.2017 28.9912C35.2017 28.8462 35.2308 28.7594 35.3472 28.6718C35.4342 28.6139 35.5501 28.6139 35.7245 28.6139H37.5236V27.7437H35.5792C34.5347 27.7437 34.1862 28.3821 34.1862 28.9623C34.1862 30.2392 35.3184 30.1812 36.2176 30.2104C36.392 30.2104 36.4791 30.2395 36.5658 30.2974C36.6243 30.3553 36.6823 30.4429 36.6823 30.5876C36.6823 30.7035 36.6243 30.7911 36.5658 30.8491C36.4788 30.907 36.3629 30.9361 36.1885 30.9361H34.3027V31.8068H36.1885C37.1751 31.8068 37.7268 31.4007 37.7268 30.53C37.7268 30.1233 37.6109 29.8619 37.4366 29.6587V29.6587ZM33.7219 30.9647H31.4294V30.1524H33.664V29.3105L31.4294 29.3396V28.5853H33.7219V27.744H30.4716V31.8068H33.7219V30.9647V30.9647ZM29.427 27.9466C29.1077 27.7728 28.7307 27.7437 28.237 27.7437H26.0029V31.8065H26.9895V30.3262H28.0341C28.3822 30.3262 28.5851 30.3553 28.7304 30.5006C28.9042 30.7035 28.8754 31.0523 28.8754 31.3128L28.9045 31.8065H29.8623V31.0231C29.8623 30.6453 29.8332 30.4715 29.7173 30.2683C29.6302 30.1524 29.4559 30.0069 29.2236 29.9201C29.485 29.8331 29.9199 29.4849 29.9199 28.8465C29.9199 28.3821 29.7461 28.121 29.427 27.9466V27.9466ZM23.913 27.7437H20.8079L19.5599 29.0788L18.3701 27.7437H14.4523V31.8065H18.3122L19.5599 30.4715L20.7497 31.8065H22.6362V30.4427H23.8551C24.6967 30.4427 25.538 30.2104 25.538 29.0788C25.538 27.9466 24.6679 27.7437 23.913 27.7437ZM28.6436 29.427C28.4981 29.4849 28.3534 29.4849 28.1499 29.4849H26.9895V28.5851H28.179C28.3534 28.5851 28.5272 28.5851 28.6436 28.6721C28.7595 28.7306 28.8466 28.8465 28.8466 29.0203C28.8464 29.0991 28.8281 29.1769 28.7929 29.2474C28.7577 29.318 28.7066 29.3794 28.6436 29.427V29.427ZM23.913 29.6296H22.6362V28.5851H23.913C24.2617 28.5851 24.4935 28.7306 24.4935 29.0788C24.4935 29.427 24.2615 29.6296 23.913 29.6296ZM20.1692 29.7751L21.6784 28.1789V31.4581L20.1692 29.7751V29.7751ZM17.8188 30.9647H15.4101V30.1524H17.5576V29.3105L15.4101 29.3396V28.5853H17.8479L18.9215 29.7754L17.8188 30.9647V30.9647ZM38.8293 24.8125H37.4363L35.6083 21.7651V24.8125H33.6349L33.2576 23.9126H31.2256L30.8483 24.8125H29.7167C29.2521 24.8125 28.6431 24.696 28.2949 24.3479C27.9756 23.9997 27.8012 23.5353 27.8012 22.8099C27.8012 22.2003 27.8882 21.6492 28.3237 21.2137C28.614 20.8946 29.1071 20.7494 29.8035 20.7494H30.7322V21.6201H29.8035C29.4553 21.6201 29.2518 21.6492 29.0492 21.8521C28.8748 22.0262 28.759 22.3455 28.759 22.7808C28.759 23.216 28.846 23.5062 29.0492 23.7383C29.1942 23.8832 29.4553 23.9415 29.7167 23.9415H30.152L31.5449 20.7491H32.9964L34.6217 24.5799V20.7496H36.1306L37.8427 23.5647V20.7496H38.8293V24.8125V24.8125ZM27.3086 20.7496H26.322V24.8127H27.3086V20.7496ZM25.2478 20.9237C24.929 20.7494 24.5803 20.7494 24.0871 20.7494H21.8528V24.8125H22.8103V23.3321H23.8551C24.2032 23.3321 24.4356 23.3613 24.5514 23.5062C24.7549 23.7094 24.7258 24.0576 24.7258 24.2899V24.8125H25.7124V23.9997C25.7124 23.6515 25.6833 23.4483 25.538 23.2742C25.451 23.1581 25.2772 23.0128 25.074 22.926C25.3063 22.8099 25.7703 22.4905 25.7703 21.8233C25.7703 21.3878 25.5671 21.1269 25.2478 20.9237ZM21.1561 23.9708H18.8927V23.1583H21.0982V22.3167H18.8927V21.5913H21.1561V20.7496H17.9058V24.8127H21.1561V23.9708ZM17.1803 20.7496H15.5841L14.3943 23.5065L13.1175 20.7496H11.5504V24.5804L9.8963 20.7496H8.44509L6.70391 24.8127H7.74845L8.12574 23.9129H10.1572L10.5344 24.8127H12.5076V21.6201L13.9297 24.8125H14.7714L16.1935 21.6201V24.8125H17.1801V20.7496H17.1803V20.7496ZM32.9097 23.0422L32.2421 21.4169L31.5746 23.0422H32.9097ZM24.4644 22.4038C24.3485 22.4908 24.1741 22.4908 24 22.4908H22.8103V21.5913H24C24.1741 21.5913 24.3485 21.5913 24.4644 21.6492C24.6099 21.7362 24.6679 21.8524 24.6679 22.0265C24.6679 22.2006 24.6099 22.3455 24.4644 22.4038ZM8.47419 23.0422L9.14172 21.4169L9.80925 23.0422H8.47419ZM41.2965 8.00977H6.67508V22.6361L7.86488 19.9371H10.3897L10.7379 20.6047V19.9371H13.698L14.3655 21.3881L15.0039 19.9371H24.4356C24.8708 19.9371 25.2478 20.0242 25.538 20.2565V19.9371H28.1211V20.2565C28.5563 20.0242 29.1077 19.9371 29.7464 19.9371H33.4899L33.8381 20.6047V19.9371H36.5955L37.0016 20.6047V19.9371H39.7006V25.625H36.9728L36.4502 24.7548V25.625H33.0549L32.6776 24.6963H31.8358L31.4585 25.625H29.6885C28.9921 25.625 28.4696 25.4512 28.1211 25.2477V25.625H23.913V24.319C23.913 24.1449 23.8839 24.1158 23.7677 24.1158H23.6228V25.6247H15.4971V24.8992L15.2069 25.6247H13.4948L13.2046 24.9283V25.6247H9.92512L9.54784 24.696H8.73533L8.35804 25.6247H6.6748V42.7759H41.2962V32.3576C40.9189 32.5315 40.3964 32.6185 39.8738 32.6185H37.3492V32.2703C37.059 32.5026 36.5364 32.6185 36.0433 32.6185H28.0917V31.2834C28.0917 31.1385 28.0626 31.1385 27.9173 31.1385H27.7724V32.6182H25.1605V31.0805C24.7252 31.2834 24.2318 31.2834 23.7966 31.2834H23.5063V32.6185H20.3145L19.5311 31.7483L18.7186 32.6185H13.5818V26.9306H18.8056L19.5602 27.8014L20.3727 26.9306H23.8842C24.2903 26.9306 24.9575 26.9886 25.2481 27.2788V26.9306H28.3825C28.7019 26.9306 29.3112 26.9886 29.7176 27.2788V26.9306H34.4476V27.2788C34.7091 27.0471 35.2019 26.9306 35.6377 26.9306H38.2787V27.2788C38.569 27.0759 38.9751 26.9306 39.4974 26.9306H41.297V8.00977H41.2965V8.00977Z" fill="#0077A6"/>
</svg>
