<svg width="41" height="41" viewBox="0 0 41 41" fill="none" xmlns="http://www.w3.org/2000/svg">
<path d="M32.2693 10.3344L27.5231 1.42543C27.0595 0.546415 26.1764 0 25.2493 0H15.7567C14.8074 0 13.9465 0.546415 13.4829 1.42543L8.73661 10.3344C8.27302 11.2134 8.27302 12.3062 8.73661 13.1852L13.4829 22.0942C13.9465 22.9732 14.8295 23.5196 15.7567 23.5196H19.2005L20.503 21.0726H15.7567C15.6242 21.0726 15.4918 21.0013 15.4256 20.8588L10.6793 11.9499C10.613 11.8311 10.613 11.6648 10.6793 11.546L15.4256 2.63705C15.4918 2.51826 15.6242 2.42323 15.7567 2.42323H25.2493C25.3817 2.42323 25.5142 2.4945 25.5804 2.63705L30.3267 11.546C30.3929 11.6648 30.3929 11.8311 30.3267 11.9499L27.5672 17.1289H30.1721L32.2914 13.1852C32.755 12.3062 32.755 11.2134 32.2693 10.3344Z" fill="#0788FE"/>
<path d="M23.9025 27.4633L21.7832 23.5196H19.1783L21.9378 28.6987C22.004 28.8174 22.004 28.9837 21.9378 29.1025L17.1915 38.0115C17.1252 38.1302 16.9928 38.2253 16.8603 38.2253H7.36777C7.23532 38.2253 7.10287 38.154 7.03664 38.0115L2.29036 29.1025C2.22413 28.9837 2.22413 28.8174 2.29036 28.6987L7.03664 19.7897C7.10287 19.6709 7.23532 19.5759 7.36777 19.5759H12.1141L10.8116 17.1289H7.38985C6.44059 17.1289 5.57964 17.6753 5.11605 18.5543L0.347693 27.4633C-0.115898 28.3423 -0.115898 29.4351 0.347693 30.3141L5.09397 39.2231C5.55756 40.1021 6.44059 40.6485 7.36777 40.6485H16.8603C17.8096 40.6485 18.6705 40.1021 19.1341 39.2231L23.8804 30.3141C24.3882 29.4351 24.3882 28.3423 23.9025 27.4633Z" fill="#A06FFE"/>
<path d="M40.6357 27.4633L35.8894 18.5781C35.4259 17.6991 34.5428 17.1527 33.6156 17.1527H24.1231C23.1738 17.1527 22.3129 17.6991 21.8493 18.5781L19.2002 23.5196H21.8051L23.7919 19.7898C23.8582 19.671 23.9906 19.5759 24.1231 19.5759H33.6156C33.7481 19.5759 33.8806 19.6472 33.9468 19.7898L38.6931 28.6987C38.7593 28.8175 38.7593 28.9838 38.6931 29.1026L33.9468 38.0115C33.8806 38.1303 33.7481 38.2253 33.6156 38.2253H24.1231C23.9906 38.2253 23.8582 38.1541 23.7919 38.0115L21.8051 34.3054L20.5027 36.7524L21.8493 39.2469C22.3129 40.1259 23.1959 40.6723 24.1231 40.6723H33.6156C34.5649 40.6723 35.4259 40.1259 35.8894 39.2469L40.6357 30.3379C41.1214 29.4352 41.1214 28.3423 40.6357 27.4633Z" fill="#00D9CB"/>
</svg>
