<svg width="62" height="41" viewBox="0 0 62 41" fill="none" xmlns="http://www.w3.org/2000/svg">
<path d="M42.1457 40.0558C53.0965 40.1096 62.0763 31.1289 61.9996 20.2019C62.0754 8.97629 53.0965 -0.00352322 42.1457 1.037e-06H20.2028C9.12078 -0.00264216 0.14097 8.97629 0 20.2019C0.14097 31.1289 9.12078 40.1087 20.2019 40.0558H42.1457V40.0558Z" fill="#2D4F9E"/>
<path d="M1.3938 20.202C1.50305 9.72878 9.87228 1.35867 20.2028 1.39391C30.5218 1.35867 38.8919 9.72878 39.0108 20.2029C38.8919 30.3783 30.5218 38.7484 20.2028 38.6629C9.87228 38.7484 1.50305 30.3774 1.3938 20.202V20.202Z" fill="white"/>
<path d="M16.0222 9.05652C11.6936 11.0098 8.44596 15.1861 8.35962 20.202C8.44596 25.0293 11.5385 29.2813 16.0222 30.9994V9.05652ZM24.3818 31.0003C28.8549 29.2822 31.9466 25.0293 32.0444 20.2029C31.9466 15.0786 28.8541 10.8257 24.3818 9.0574V31.0003Z" fill="#2D4F9E"/>
</svg>
