<svg width="80" height="40" viewBox="0 0 80 40" fill="none" xmlns="http://www.w3.org/2000/svg">
<path d="M2.49603 32.0394C2.13835 31.4618 1.66144 30.5389 1.36689 29.8556C-0.351372 25.8542 -0.428519 21.7119 1.01622 17.7386C2.60824 13.3779 5.65201 10.0458 9.58647 8.34096C14.5308 6.20641 19.9942 6.62205 24.7352 9.44699C27.7439 11.18 29.8759 13.857 31.496 17.6471C31.6994 18.1331 31.8817 18.6474 32.0641 19.0912L2.49603 32.0394ZM12.3708 14.7728C8.85709 16.2874 7.04766 19.5985 7.42638 23.4731L22.2946 17.0412C19.7347 14.0261 16.4104 13.0257 12.3708 14.7728V14.7728ZM24.1461 28.7636C24.1391 28.7636 24.1391 28.7707 24.1391 28.7707L23.8305 28.5594C22.9398 30.0035 21.5582 31.18 19.8119 31.9408C16.4876 33.392 13.4087 33.0187 11.1925 31.0673L10.9891 31.3772C10.9891 31.3772 10.9891 31.3702 10.9821 31.3702L7.20896 37.0412C8.14874 37.6964 9.15165 38.2459 10.2036 38.6897C14.3695 40.4297 18.6336 40.3452 22.8346 38.5136C25.8714 37.1892 28.2559 35.1744 29.883 32.6171L24.1461 28.7636ZM42.3947 0V31.5181L47.2759 33.5048L44.5057 40L39.1195 37.7457C37.9132 37.2173 37.0856 36.4142 36.4685 35.5055C35.8723 34.5826 35.4305 33.3075 35.4305 31.6027V0H42.3947ZM55.0327 23.4942C55.0327 20.8101 56.2179 18.4008 58.0834 16.7665L53.0759 11.1589C49.6815 14.174 47.5425 18.577 47.5425 23.4801C47.5354 28.3903 49.6745 32.8003 53.0619 35.8154L58.0624 30.2078C56.2039 28.5664 55.0327 26.1712 55.0327 23.4942V23.4942ZM63.9255 32.434C62.9437 32.434 61.9898 32.2649 61.1062 31.969L58.7146 39.1053C60.3487 39.6548 62.095 39.9577 63.9185 39.9577C71.8435 39.9648 78.4571 34.3149 79.993 26.8123L72.643 25.3047C71.8085 29.3836 68.2247 32.441 63.9255 32.434V32.434ZM63.9466 7.03064C62.1301 7.03064 60.3838 7.32652 58.7497 7.86897L61.1202 15.0123C62.0109 14.7164 62.9577 14.5544 63.9395 14.5544C68.2457 14.5615 71.8365 17.633 72.6501 21.7189L80 20.2254C78.4921 12.7087 71.8786 7.03769 63.9466 7.03064V7.03064Z" fill="white"/>
</svg>
