<svg width="93" height="41" viewBox="0 0 93 41" fill="none" xmlns="http://www.w3.org/2000/svg">
<path d="M25.5303 0H15.8919C11.6329 0.200363 8.15168 1.90717 7.14651 5.42687C6.62238 7.26247 6.33393 9.27845 5.92408 11.1813C3.84052 20.8564 1.99301 30.7983 0 40.2803H75.0392C80.8405 40.2803 84.8239 39.0606 85.9001 34.4789C86.4002 32.3507 86.8792 29.9403 87.3577 27.6021C89.2227 18.4853 91.0894 9.36909 92.9999 0H25.5303Z" fill="#822124"/>
<path d="M24.7781 14.3156C25.1812 14.0393 25.7004 12.781 25.1072 12.2572C24.9194 12.0913 24.6052 12.0432 24.1669 12.1169C23.7603 12.1852 23.5264 12.3227 23.3676 12.538C23.1124 12.884 22.8782 13.928 23.2736 14.3158C23.6588 14.6933 24.5216 14.4913 24.7781 14.3156V14.3156ZM19.042 12.2572C18.7532 14.1218 18.4279 15.9501 18.1017 17.7776C16.0071 17.7996 13.8686 17.8804 11.8484 17.7307C12.23 15.9429 12.5036 14.0475 12.8828 12.2572H10.626C9.81817 16.8177 9.08318 21.4511 8.18115 25.918H10.4851C10.8464 23.6268 11.1845 21.312 11.6604 19.1343C13.6247 19.0862 15.979 19.0023 17.8667 19.1812C17.4775 21.4451 17.0072 23.6279 16.6443 25.918H18.9482C19.6887 21.29 20.4684 16.7016 21.3932 12.2572H19.042V12.2572ZM51.6249 16.187C49.8323 15.4666 48.4229 16.684 47.7695 17.8244C47.9178 17.3171 47.9788 16.7229 48.0989 16.187H46.3122C45.8753 19.5576 45.2316 22.722 44.6196 25.918H46.6415C46.9248 24.021 47.0472 21.4637 47.6757 19.649C48.1781 18.1988 49.4929 16.9634 51.3901 17.6373C51.4164 17.1024 51.5703 16.694 51.6249 16.187V16.187ZM52.7531 23.6257C52.5667 23.1465 52.5187 22.3556 52.5652 21.7541C52.6696 20.4025 53.1648 18.7567 53.9288 18.0115C54.9831 16.9832 57.0644 17.1534 58.7246 17.7309C58.7759 17.1741 58.8884 16.6775 58.9598 16.1403C56.2371 15.6978 53.6535 15.9732 52.2835 17.4035C50.9423 18.8037 50.0634 22.0219 50.6847 24.0468C51.412 26.4162 54.6736 26.545 57.3142 25.6375C57.431 25.1612 57.4929 24.6302 57.5962 24.1405C56.1531 24.8862 53.3944 25.2738 52.7531 23.6257V23.6257ZM75.4625 16.2337C73.6756 15.3447 72.1879 16.8364 71.6072 17.7307C71.7726 17.2719 71.7821 16.6573 71.9362 16.1868H70.1496C69.6678 19.5282 69.0873 22.771 68.4102 25.9178H70.479C70.4919 24.628 70.7466 23.674 70.9489 22.4093C71.3812 19.7085 72.0161 16.7469 75.1808 17.6372C75.2854 17.1805 75.329 16.6624 75.4625 16.2337ZM22.7093 16.187C22.6545 16.1948 22.6582 16.261 22.6622 16.3273C22.2168 19.6422 21.6138 22.8008 20.9697 25.9178H22.9914C23.4772 22.5805 24.0336 19.3138 24.731 16.1868L22.7093 16.187V16.187ZM40.4817 15.9999C39.0209 16.112 37.7861 16.5302 36.9085 17.4502C35.8321 18.5785 34.9606 21.0731 35.216 23.345C35.5804 26.5861 39.6359 26.4696 42.8797 25.6842C42.935 25.1152 43.0734 24.629 43.1617 24.0934C41.8256 24.591 39.5054 25.2854 38.1307 24.4211C37.093 23.7681 37.087 22.1153 37.4255 20.6784C39.6056 20.6094 41.8716 20.6224 44.0548 20.6784C44.1932 19.66 44.5895 18.5498 44.2428 17.544C43.7857 16.2161 42.1481 15.872 40.4817 15.9999ZM42.4094 19.5554H37.6604C37.8109 18.4691 38.7931 17.2751 40.3406 17.2163C41.7971 17.1609 42.8399 17.7483 42.4094 19.5554V19.5554ZM32.818 16.187C31.1069 15.5474 29.0215 16.3109 28.1173 17.0372C28.1206 17.0691 28.0957 17.0735 28.0691 17.0758C28.0844 17.063 28.1012 17.0501 28.1173 17.0372C28.1171 17.0345 28.1168 17.0318 28.1164 17.0292C28.1315 16.7169 28.242 16.4993 28.2573 16.187H26.5177C25.7927 20.9861 24.9331 25.6509 24.0259 30.2687H26.0476C26.3402 28.4704 26.5334 26.573 26.9411 24.8887C27.4027 26.6602 30.4175 26.3218 31.6898 25.6373C34.3145 24.2248 36.3391 17.5029 32.818 16.187V16.187ZM31.2195 24.0934C30.1379 25.2333 27.4787 25.2162 27.27 23.298C27.1793 22.4635 27.4917 21.5885 27.6465 20.7251C27.8026 19.8511 27.9152 19.0126 28.0693 18.2455C29.1347 16.9511 32.2654 16.7947 32.5831 18.9472C32.8586 20.8161 32.1152 23.1494 31.2195 24.0934V24.0934ZM82.9851 11.9765C82.8118 13.4882 82.5802 14.942 82.28 16.3273C77.3208 14.7652 74.2795 18.3959 74.3343 22.8771C74.345 23.7438 74.4949 24.6032 75.0393 25.2162C75.9784 26.2724 78.6661 26.5254 80.0234 25.6371C80.2859 25.4653 80.5545 25.1525 80.7284 24.9356C80.8593 24.7723 81.0669 24.3445 81.1047 24.4677C81.0331 24.9423 80.9265 25.3823 80.9168 25.9178H82.7505C83.1041 20.8737 84.1965 16.5654 85.0073 11.9763H82.9853V11.9765H82.9851ZM78.4716 24.8419C77.1106 24.8709 76.4339 24.0328 76.4027 22.6431C76.3485 20.2094 77.4214 17.5055 79.6 17.2629C80.6143 17.1501 81.3488 17.3848 82.092 17.6373C81.4096 20.3712 81.6558 24.7739 78.4716 24.8419V24.8419ZM61.0282 16.187C60.9287 16.7429 60.7759 17.2459 60.6521 17.7776C61.8451 17.4798 65.5601 16.5672 65.9181 18.1518C66.0369 18.6782 65.8319 19.2375 65.6829 19.649C62.3238 19.3323 59.5858 19.8876 58.8654 22.2687C58.3831 23.8637 58.9194 25.4331 59.9469 25.8713C61.9256 26.7149 64.3325 25.7485 65.1657 24.4211C65.0792 24.8805 64.9972 25.345 65.025 25.918H66.7644C66.783 24.2602 67.0255 22.9183 67.2816 21.4266C67.4999 20.1563 67.9109 18.8987 67.8459 17.7776C67.6962 15.2099 63.4212 16.1182 61.0282 16.187V16.187ZM64.3194 24.0466C63.2775 25.0615 60.3529 25.3498 60.6521 22.9238C60.9004 20.9089 63.1053 20.4807 65.4945 20.7716C65.3171 21.8738 65.1133 23.2733 64.3194 24.0466V24.0466Z" fill="white"/>
</svg>
