<svg width="65" height="41" viewBox="0 0 65 41" fill="none" xmlns="http://www.w3.org/2000/svg">
<path d="M41.2897 35.8815H23.7136V4.2948H41.2901L41.2897 35.8815Z" fill="#FF5F00"/>
<path d="M65 20.0885C65 31.1831 56.0075 40.1769 44.9141 40.1769C40.4102 40.1835 36.0358 38.6702 32.4988 35.8818C37.1718 32.2035 40.1719 26.4961 40.1719 20.0885C40.1719 13.6808 37.1718 7.97339 32.4988 4.2951C36.0357 1.5068 40.41 -0.00651551 44.9138 2.10869e-05C56.0072 2.10869e-05 64.9996 8.99379 64.9996 20.0885" fill="#F79E1B"/>
<path d="M24.8277 20.0885C24.8277 13.6811 27.8278 7.9734 32.4995 4.2951C28.9632 1.50672 24.5894 -0.00663214 20.0861 2.1849e-05C8.99271 2.1849e-05 0.000244141 8.99379 0.000244141 20.0885C0.000244141 31.1831 8.99271 40.1769 20.0861 40.1769C24.5895 40.1836 28.9635 38.6703 32.4998 35.8818C27.8284 32.2042 24.8277 26.4961 24.8277 20.0885Z" fill="#EB001B"/>
</svg>
