<svg width="105" height="32" viewBox="0 0 105 32" fill="none" xmlns="http://www.w3.org/2000/svg">
<path d="M37.5766 31.6101L42.8589 0.621869H51.3047L46.0209 31.6101H37.5766ZM76.4969 1.30168C74.0731 0.423687 71.5127 -0.0168802 68.9349 0.000494552C60.5997 0.000494552 54.7277 4.19819 54.6771 10.2156C54.6312 14.6631 58.87 17.1436 62.07 18.6235C65.3538 20.1413 66.4574 21.1089 66.4416 22.4638C66.421 24.5381 63.8187 25.4852 61.3949 25.4852C58.0178 25.4852 56.2249 25.0109 53.4533 23.8615L52.3672 23.3698L51.183 30.2979C53.153 31.1611 56.7973 31.9105 60.5791 31.9485C69.4471 31.9485 75.2036 27.7998 75.27 21.3745C75.3017 17.8535 73.0566 15.1737 68.1871 12.965C65.2384 11.542 63.4329 10.5776 63.4518 9.1278C63.4518 7.84242 64.9807 6.46698 68.2835 6.46698C70.4474 6.41854 72.5977 6.82242 74.5966 7.65276L75.3523 8.01003L76.4969 1.30168V1.30168ZM98.195 0.621869H91.697C89.6843 0.621869 88.1776 1.1721 87.2938 3.18001L74.8036 31.452H83.6938C83.6938 31.452 85.1167 27.6923 85.444 26.867L96.0955 26.8797C96.3437 27.9485 97.1073 31.452 97.1073 31.452H105L98.195 0.621869ZM87.863 20.5429C88.5602 18.7595 91.2243 11.8914 91.2243 11.8914C91.1737 11.9737 91.9167 10.0986 92.342 8.9365L92.9128 11.6053C92.9128 11.6053 94.5286 18.9935 94.8654 20.5429H87.863ZM30.4098 0.621869L22.1695 21.6796L21.292 17.3998C19.7584 12.467 14.9789 7.12311 9.63501 4.448L17.1702 31.452L26.0746 31.4425L39.3252 0.621869H30.3687" fill="#D9D9D9"/>
<path d="M14.1096 0.620832H0.564893L0.455811 1.26429C11.0392 3.82714 18.0416 10.0185 20.9491 17.4557L17.991 3.22637C17.4803 1.26747 16.0005 0.682486 14.1681 0.614502" fill="#D9D9D9"/>
</svg>
